<svg height="512pt" viewBox="0 0 512 512.001" width="512pt" xmlns="http://www.w3.org/2000/svg"><path d="m403.613281 320.636719c3.164063-6.523438 5.960938-13.324219 8.359375-20.335938l66.828125-16.707031v-83.386719l-66.828125-16.710937c-2.398437-7.007813-5.191406-13.808594-8.363281-20.332032l36.015625-60.023437-58.964844-58.964844-60.019531 36.011719c-6.269531-3.050781-12.773437-5.75-19.460937-8.078125l-17.503907-72.109375h-83.554687l-17.488282 72.058594c-7.296874 2.46875-14.175781 5.21875-20.410156 8.164062l-60.082031-36.046875-58.964844 58.964844 36.011719 60.015625c-3.054688 6.28125-5.757812 12.796875-8.089844 19.492188l-71.097656 17.515624v83.472657l71.097656 17.511719c2.332032 6.695312 5.035156 13.210937 8.089844 19.492187l-36.011719 60.015625 58.964844 58.96875 60.078125-36.046875c6.253906 2.953125 13.15625 5.710937 20.476562 8.183594l17.511719 70.039062h83.386719l17.519531-70.085937c6.707031-2.335938 13.234375-5.042969 19.527344-8.101563l21.902344 13.140625 95.246093 95.246094 74.210938-74.210938-95.242188-95.242187zm-119.277343 64.980469-8.214844 2.433593-15.941406 63.761719h-36.5625l-15.941407-63.761719-8.214843-2.433593c-23.308594-6.894532-33.332032-14.085938-38.164063-16.457032l-54.507813 32.703125-25.851562-25.855469 32.703125-54.507812c-2.453125-4.902344-10.421875-16.757812-16.460937-37.164062l-2.4375-8.25-64.753907-15.949219v-36.476563l64.75-15.949218 2.441407-8.25c6.042968-20.429688 14.050781-32.34375 16.460937-37.164063l-32.703125-54.507813 25.851562-25.851562 54.507813 32.703125c4.804687-2.359375 14.867187-9.566406 38.167969-16.460937l8.277344-2.449219 15.960937-65.742188h36.394531l15.957032 65.742188 8.28125 2.449219c20.367187 6.027343 32.261718 14.003906 37.167968 16.460937l54.507813-32.703125 25.851562 25.851562-32.707031 54.507813c2.457031 4.929687 10.558594 16.921875 16.648438 37.894531l2.402343 8.273438 60.605469 15.152344v36.5625l-60.605469 15.148437-2.402343 8.273437c-2.058594 7.085938-4.589844 13.925782-7.546876 20.449219l-22.980468-22.980469c4.363281-12.558593 6.574218-25.691406 6.574218-39.171874 0-66.140626-53.8125-119.949219-119.953124-119.949219-66.15625 0-120.949219 53.695312-120.949219 119.949219 0 66.164062 54.695312 119.949218 120.949219 119.949218 13.488281 0 26.617187-2.210937 39.167968-6.570312l22.988282 22.988281c-6.324219 2.875-12.921876 5.339844-19.71875 7.351563zm-98.652344-199.9375 46.859375 121.074218 23.933593 23.933594c-4.78125.78125-9.644531 1.175781-14.578124 1.175781-50.15625 0-90.960938-40.359375-90.960938-89.964843 0-49.605469 40.804688-89.960938 90.960938-89.960938 49.605468 0 89.964843 40.355469 89.964843 89.960938 0 4.929687-.398437 9.792968-1.179687 14.574218l-23.929688-23.929687zm85.828125 65.378906-20.453125 20.453125-12.914063-33.367188zm198.082031 186.730468-31.800781 31.800782-23.777344-23.773438 31.800781-31.800781zm-76.785156-13.179687-126.21875-126.21875 31.800781-31.800781 126.21875 126.21875zm0 0"/></svg>